<?xml version="1.0" encoding="utf-8"?>
<!-- Generator: Adobe Illustrator 24.0.2, SVG Export Plug-In . SVG Version: 6.00 Build 0)  -->
<svg version="1.1" id="Layer_1" xmlns="http://www.w3.org/2000/svg" xmlns:xlink="http://www.w3.org/1999/xlink" x="0px" y="0px"
	 viewBox="0 0 612 792" style="enable-background:new 0 0 612 792;" xml:space="preserve">
<style type="text/css">
	.st0{font-family:'RubikVinyl-Regular';}
	.st1{font-size:164.407px;}
	.st2{stroke:#000000;stroke-miterlimit:10;}
	.st3{fill:#FCB116;}
	.st4{stroke:#000000;stroke-width:0.75;stroke-miterlimit:10;}
</style>
<g>
	<text transform="matrix(1 0 0 1 48.148 446.284)" class="st0 st1">E</text>
	<text transform="matrix(1 0 0 1 215.8296 449.9559)" class="st2 st0 st1">PAY</text>
	<path d="M179.29,307.74l69.4-2.1c1.42-0.04,2.3,1.3,1.5,2.29l-47.03,58.92c-0.8,1,0.08,2.34,1.51,2.29l33.82-1.12
		c1.43-0.05,2.31,1.3,1.5,2.3L198,422.61c-0.78,0.98,0.04,2.3,1.44,2.3h20.75c1.55,0,2.33,1.59,1.22,2.52l-73.09,61.22
		c-1.36,1.14-3.58-0.15-2.82-1.63l24.22-47.14c0.49-0.94-0.3-2.01-1.51-2.06l-16.89-0.69c-1.25-0.05-2.03-1.16-1.48-2.11
		l29.67-51.67c0.6-1.05-0.4-2.24-1.77-2.11l-25.81,2.56c-1.26,0.12-2.24-0.89-1.86-1.91l27.63-73.13
		C177.92,308.17,178.56,307.76,179.29,307.74z"/>
	<path class="st3" d="M175.07,300.26L245,298l-48.04,64.18l38.43-1.36l-43.24,57.4l20.89,1.75c1.79,0,3.76,0.07,2.53,1.17
		l-71.61,62.98c-1.55,1.39-0.22-0.63,0.63-2.4l22.45-48.14c0.53-1.1-0.38-2.32-1.78-2.38l-17.95-0.78l30.42-56.5l-29.89,3.16
		L175.07,300.26z"/>
</g>
<line class="st4" x1="155.25" y1="377.6" x2="163.88" y2="358.82"/>
<line class="st4" x1="159.73" y1="376.4" x2="164.89" y2="365.23"/>
<line class="st4" x1="164.43" y1="376.85" x2="167.22" y2="370.21"/>
<line class="st4" x1="204.89" y1="377.66" x2="220.67" y2="362.24"/>
<line class="st4" x1="206.35" y1="371.45" x2="215.89" y2="362.43"/>
<line class="st4" x1="205.08" y1="367.19" x2="211.24" y2="361.93"/>
<line class="st4" x1="149.26" y1="431.27" x2="157.15" y2="420.38"/>
<line class="st4" x1="153.81" y1="431.33" x2="157.98" y2="425.23"/>
</svg>
